<?xml version="1.0" encoding="UTF-8" standalone="no"?>
<svg
   width="250.026"
   height="276.74695"
   viewBox="0 0 250.026 276.74695"
   version="1.1"
   preserveAspectRatio="xMidYMid"
   id="svg5"
   sodipodi:docname="logo_csharp.svg"
   inkscape:version="1.4.2 (ebf0e940d0, 2025-05-08)"
   xmlns:inkscape="http://www.inkscape.org/namespaces/inkscape"
   xmlns:sodipodi="http://sodipodi.sourceforge.net/DTD/sodipodi-0.dtd"
   xmlns="http://www.w3.org/2000/svg"
   xmlns:svg="http://www.w3.org/2000/svg">
  <defs
     id="defs5">
    <filter
       id="b"
       width="42.845001"
       height="39.136002"
       x="44.629002"
       y="91.889999"
       color-interpolation-filters="sRGB"
       filterUnits="userSpaceOnUse">
      <feFlood
         flood-opacity="0"
         result="BackgroundImageFix"
         id="feFlood2" />
      <feColorMatrix
         in="SourceAlpha"
         result="hardAlpha"
         type="matrix"
         values="0 0 0 0 0 0 0 0 0 0 0 0 0 0 0 0 0 0 127 0"
         id="feColorMatrix2" />
      <feOffset
         id="feOffset2" />
      <feColorMatrix
         type="matrix"
         values="0 0 0 0 0 0 0 0 0 0 0 0 0 0 0 0 0 0 0.1 0"
         id="feColorMatrix3" />
      <feBlend
         in2="BackgroundImageFix"
         mode="normal"
         result="effect1_dropShadow_2037_2800"
         id="feBlend3" />
      <feColorMatrix
         in="SourceAlpha"
         result="hardAlpha"
         type="matrix"
         values="0 0 0 0 0 0 0 0 0 0 0 0 0 0 0 0 0 0 127 0"
         id="feColorMatrix4" />
      <feOffset
         dy="1"
         id="feOffset4" />
      <feGaussianBlur
         stdDeviation="2.499"
         id="feGaussianBlur4" />
      <feColorMatrix
         type="matrix"
         values="0 0 0 0 0 0 0 0 0 0 0 0 0 0 0 0 0 0 0.1 0"
         id="feColorMatrix5" />
      <feBlend
         in2="effect1_dropShadow_2037_2800"
         mode="normal"
         result="effect2_dropShadow_2037_2800"
         id="feBlend5" />
      <feColorMatrix
         in="SourceAlpha"
         result="hardAlpha"
         type="matrix"
         values="0 0 0 0 0 0 0 0 0 0 0 0 0 0 0 0 0 0 127 0"
         id="feColorMatrix6" />
      <feOffset
         dy="4"
         id="feOffset6" />
      <feGaussianBlur
         stdDeviation="2"
         id="feGaussianBlur6" />
      <feColorMatrix
         type="matrix"
         values="0 0 0 0 0 0 0 0 0 0 0 0 0 0 0 0 0 0 0.09 0"
         id="feColorMatrix7" />
      <feBlend
         in2="effect2_dropShadow_2037_2800"
         mode="normal"
         result="effect3_dropShadow_2037_2800"
         id="feBlend7" />
      <feColorMatrix
         in="SourceAlpha"
         result="hardAlpha"
         type="matrix"
         values="0 0 0 0 0 0 0 0 0 0 0 0 0 0 0 0 0 0 127 0"
         id="feColorMatrix8" />
      <feOffset
         dy="9"
         id="feOffset8" />
      <feGaussianBlur
         stdDeviation="2.5"
         id="feGaussianBlur8" />
      <feColorMatrix
         type="matrix"
         values="0 0 0 0 0 0 0 0 0 0 0 0 0 0 0 0 0 0 0.05 0"
         id="feColorMatrix9" />
      <feBlend
         in2="effect3_dropShadow_2037_2800"
         mode="normal"
         result="effect4_dropShadow_2037_2800"
         id="feBlend9" />
      <feColorMatrix
         in="SourceAlpha"
         result="hardAlpha"
         type="matrix"
         values="0 0 0 0 0 0 0 0 0 0 0 0 0 0 0 0 0 0 127 0"
         id="feColorMatrix10" />
      <feOffset
         dy="15"
         id="feOffset10" />
      <feGaussianBlur
         stdDeviation="3"
         id="feGaussianBlur10" />
      <feColorMatrix
         type="matrix"
         values="0 0 0 0 0 0 0 0 0 0 0 0 0 0 0 0 0 0 0.01 0"
         id="feColorMatrix11" />
      <feBlend
         in2="effect4_dropShadow_2037_2800"
         mode="normal"
         result="effect5_dropShadow_2037_2800"
         id="feBlend11" />
      <feBlend
         in="SourceGraphic"
         in2="effect5_dropShadow_2037_2800"
         mode="normal"
         result="shape"
         id="feBlend12" />
    </filter>
    <linearGradient
       id="a"
       x1="46.772999"
       x2="69.906998"
       y1="86.461998"
       y2="126.732"
       gradientTransform="matrix(5.2110006,0,0,4.9232195,-219.1796,-368.32802)"
       gradientUnits="userSpaceOnUse">
      <stop
         stop-color="#927BE5"
         id="stop1" />
      <stop
         offset="1"
         stop-color="#512BD4"
         id="stop2" />
    </linearGradient>
  </defs>
  <sodipodi:namedview
     id="namedview5"
     pagecolor="#505050"
     bordercolor="#eeeeee"
     borderopacity="1"
     inkscape:showpageshadow="0"
     inkscape:pageopacity="0"
     inkscape:pagecheckerboard="0"
     inkscape:deskcolor="#d1d1d1"
     inkscape:zoom="4.7778812"
     inkscape:cx="166.0778"
     inkscape:cy="173.50787"
     inkscape:window-width="3840"
     inkscape:window-height="2160"
     inkscape:window-x="1920"
     inkscape:window-y="0"
     inkscape:window-maximized="1"
     inkscape:current-layer="svg5" />
  <path
     d="M 1.7138909e-8,82.450512 V 179.86797 C 1.7138909e-8,191.91955 6.8045631,203.06602 17.85916,209.08704 l 89.29526,48.7149 a 35.702334,33.730649 0 0 0 35.71834,0 l 89.29467,-48.7149 a 35.710633,33.73849 0 0 0 17.85858,-29.21962 V 82.451073 c 0,-12.056062 -6.80397,-23.200848 -17.85858,-29.224118 L 142.87218,4.5243862 a 35.694628,33.723368 0 0 0 -35.71776,0 L 17.85916,53.226955 A 35.715377,33.742971 0 0 0 1.7138909e-8,82.451073 Z"
     fill="url(#a)"
     id="path12"
     style="fill:url(#a);stroke-width:0.377953" />
  <path
     d="m 54.056,98.03 v 6.855 a 1.711,1.711 0 0 0 1.714,1.714 1.713,1.713 0 0 0 1.714,-1.714 1.7135,1.7135 0 1 1 3.427,0 5.141,5.141 0 1 1 -10.282,0 v -6.854 a 5.141,5.141 0 1 1 10.282,0 1.7135,1.7135 0 1 1 -3.427,0 1.7135,1.7135 0 1 0 -3.427,0 z m 27.418,6.855 a 1.712,1.712 0 0 1 -1.714,1.714 h -1.714 v 1.713 c 0,0.455 -0.18,0.891 -0.502,1.212 a 1.71,1.71 0 0 1 -2.423,0 1.719,1.719 0 0 1 -0.502,-1.212 v -1.713 h -3.427 v 1.713 a 1.71,1.71 0 0 1 -1.714,1.714 1.71,1.71 0 0 1 -1.713,-1.714 v -1.713 H 66.05 a 1.7135,1.7135 0 1 1 0,-3.427 h 1.714 V 99.745 H 66.05 a 1.7135,1.7135 0 1 1 0,-3.427 h 1.714 v -1.714 a 1.7135,1.7135 0 1 1 3.427,0 v 1.713 h 3.427 v -1.713 a 1.7135,1.7135 0 1 1 3.427,0 v 1.713 h 1.714 c 0.454,0 0.89,0.18 1.211,0.502 a 1.71,1.71 0 0 1 0,2.423 1.712,1.712 0 0 1 -1.211,0.503 h -1.714 v 3.427 h 1.714 a 1.718,1.718 0 0 1 1.714,1.713 z m -6.855,-5.14 h -3.427 v 3.427 h 3.427 z"
     fill="#ffffff"
     filter="url(#b)"
     style="mix-blend-mode:screen;stroke-width:0.655902"
     transform="matrix(5.2110243,0,0,4.9232422,-219.17781,-368.32579)"
     id="path13" />
</svg>
